<mxfile host="app.diagrams.net" modified="2024-05-09T07:20:20.935Z" agent="Mozilla/5.0 (Windows NT 10.0; Win64; x64) AppleWebKit/537.36 (KHTML, like Gecko) Chrome/101.0.0.0 Safari/537.36" etag="UuVPiukODNVu9L5NKzjD" version="24.3.1" type="github" pages="2">
  <diagram name="Page-1" id="aaaa8250-4180-3840-79b5-4cada1eebb92">
    <mxGraphModel dx="3500" dy="1937" grid="1" gridSize="10" guides="1" tooltips="1" connect="1" arrows="1" fold="1" page="1" pageScale="1" pageWidth="850" pageHeight="1100" background="none" math="0" shadow="0">
      <root>
        <mxCell id="0" />
        <mxCell id="1" parent="0" />
        <mxCell id="d5ac148becb70bc-7" value="" style="verticalLabelPosition=bottom;html=1;verticalAlign=top;strokeWidth=1;dashed=0;shape=mxgraph.aws3d.flatDoubleEdge;fillColor=#000000;aspect=fixed;rounded=1;shadow=0;comic=0;fontFamily=Verdana;fontSize=12;flipV=1;" parent="1" vertex="1">
          <mxGeometry x="1602" y="1328" width="584" height="333" as="geometry" />
        </mxCell>
        <mxCell id="1a8abee3a6cfdf20-38" value="" style="verticalLabelPosition=bottom;html=1;verticalAlign=top;strokeWidth=1;dashed=0;shape=mxgraph.aws3d.flatDoubleEdge;fillColor=#000000;aspect=fixed;rounded=1;shadow=0;comic=0;fontFamily=Verdana;fontSize=12;flipV=1;" parent="1" vertex="1">
          <mxGeometry x="972" y="992" width="626" height="357" as="geometry" />
        </mxCell>
        <mxCell id="1a8abee3a6cfdf20-28" value="" style="verticalLabelPosition=bottom;html=1;verticalAlign=top;strokeWidth=1;dashed=0;shape=mxgraph.aws3d.flatDoubleEdge;fillColor=#000000;aspect=fixed;rounded=1;shadow=0;comic=0;fontFamily=Verdana;fontSize=12;flipV=1;" parent="1" vertex="1">
          <mxGeometry x="262" y="779" width="512" height="292" as="geometry" />
        </mxCell>
        <mxCell id="1a8abee3a6cfdf20-3" value="" style="edgeStyle=isometricEdgeStyle;endArrow=none;html=1;labelBackgroundColor=none;strokeWidth=5;fontFamily=Verdana;fontSize=12" parent="1" edge="1">
          <mxGeometry width="50" height="100" relative="1" as="geometry">
            <mxPoint x="352" y="1308" as="sourcePoint" />
            <mxPoint x="262" y="1068" as="targetPoint" />
            <Array as="points">
              <mxPoint x="302" y="1208" />
            </Array>
          </mxGeometry>
        </mxCell>
        <mxCell id="1a8abee3a6cfdf20-4" value="" style="verticalLabelPosition=bottom;html=1;verticalAlign=top;strokeWidth=1;dashed=0;shape=mxgraph.aws3d.dynamoDb;fillColor=#ECECEC;strokeColor=#5E5E5E;aspect=fixed;rounded=1;shadow=0;comic=0;fontSize=12" parent="1" vertex="1">
          <mxGeometry x="188" y="1298" width="181.5" height="210" as="geometry" />
        </mxCell>
        <mxCell id="1a8abee3a6cfdf20-5" value="" style="edgeStyle=isometricEdgeStyle;endArrow=none;html=1;labelBackgroundColor=none;strokeColor=#000000;strokeWidth=5;fontFamily=Verdana;fontSize=12" parent="1" edge="1">
          <mxGeometry width="50" height="100" relative="1" as="geometry">
            <mxPoint x="422" y="1338" as="sourcePoint" />
            <mxPoint x="972" y="1358" as="targetPoint" />
            <Array as="points">
              <mxPoint x="682" y="1348" />
            </Array>
          </mxGeometry>
        </mxCell>
        <mxCell id="1a8abee3a6cfdf20-6" value="" style="verticalLabelPosition=bottom;html=1;verticalAlign=top;strokeWidth=1;dashed=0;shape=mxgraph.aws3d.elasticLoadBalancing;fillColor=#ECECEC;strokeColor=#5E5E5E;aspect=fixed;rounded=1;shadow=0;comic=0;fontSize=12;" parent="1" vertex="1">
          <mxGeometry x="312" y="948" width="92" height="88.17" as="geometry" />
        </mxCell>
        <mxCell id="1a8abee3a6cfdf20-7" value="" style="verticalLabelPosition=bottom;html=1;verticalAlign=top;strokeWidth=1;dashed=0;shape=mxgraph.aws3d.workflowService;fillColor=#ECECEC;strokeColor=#5E5E5E;aspect=fixed;rounded=1;shadow=0;comic=0;fontSize=12" parent="1" vertex="1">
          <mxGeometry x="511" y="788" width="182.20000000000002" height="148.4" as="geometry" />
        </mxCell>
        <mxCell id="1a8abee3a6cfdf20-8" value="" style="verticalLabelPosition=bottom;html=1;verticalAlign=top;strokeWidth=1;dashed=0;shape=mxgraph.aws3d.cloudfront;fillColor=#ECECEC;strokeColor=#5E5E5E;aspect=fixed;rounded=1;shadow=0;comic=0;fontSize=12" parent="1" vertex="1">
          <mxGeometry x="312" y="618" width="103.8" height="169.79999999999998" as="geometry" />
        </mxCell>
        <mxCell id="1a8abee3a6cfdf20-9" value="" style="verticalLabelPosition=bottom;html=1;verticalAlign=top;strokeWidth=1;dashed=0;shape=mxgraph.aws3d.internetGateway;fillColor=#ECECEC;strokeColor=#5E5E5E;aspect=fixed;rounded=1;shadow=0;comic=0;fontSize=12;flipH=1;flipV=0;" parent="1" vertex="1">
          <mxGeometry x="782" y="378" width="116.7" height="102.8" as="geometry" />
        </mxCell>
        <mxCell id="1a8abee3a6cfdf20-10" value="" style="verticalLabelPosition=bottom;html=1;verticalAlign=top;strokeWidth=1;dashed=0;shape=mxgraph.aws3d.internetGateway;fillColor=#ECECEC;strokeColor=#5E5E5E;aspect=fixed;rounded=1;shadow=0;comic=0;fontSize=12;flipH=1;flipV=0;" parent="1" vertex="1">
          <mxGeometry x="1694" y="827" width="116.7" height="102.8" as="geometry" />
        </mxCell>
        <mxCell id="1a8abee3a6cfdf20-11" value="" style="verticalLabelPosition=bottom;html=1;verticalAlign=top;strokeWidth=1;dashed=0;shape=mxgraph.aws3d.internetGateway;fillColor=#ECECEC;strokeColor=#5E5E5E;aspect=fixed;rounded=1;shadow=0;comic=0;fontSize=12;flipH=1;flipV=0;" parent="1" vertex="1">
          <mxGeometry x="2302" y="1151" width="116.7" height="102.8" as="geometry" />
        </mxCell>
        <mxCell id="1a8abee3a6cfdf20-12" value="" style="verticalLabelPosition=bottom;html=1;verticalAlign=top;strokeWidth=1;dashed=0;shape=mxgraph.aws3d.redshift;fillColor=#CC0000;strokeColor=#E6E6E6;aspect=fixed;rounded=1;shadow=0;comic=0;fontSize=12" parent="1" vertex="1">
          <mxGeometry x="1130" y="788" width="150" height="190" as="geometry" />
        </mxCell>
        <mxCell id="1a8abee3a6cfdf20-13" value="" style="verticalLabelPosition=bottom;html=1;verticalAlign=top;strokeWidth=1;dashed=0;shape=mxgraph.aws3d.simpleDb2;fillColor=#ECECEC;strokeColor=#5E5E5E;aspect=fixed;rounded=1;shadow=0;comic=0;fontSize=12" parent="1" vertex="1">
          <mxGeometry x="764" y="595" width="181.5" height="192.6" as="geometry" />
        </mxCell>
        <mxCell id="1a8abee3a6cfdf20-14" value="" style="verticalLabelPosition=bottom;html=1;verticalAlign=top;strokeWidth=1;dashed=0;shape=mxgraph.aws3d.snapshot;fillColor=#4286c5;strokeColor=#57A2D8;aspect=fixed;rounded=1;shadow=0;comic=0;fontSize=12" parent="1" vertex="1">
          <mxGeometry x="2000" y="1376" width="92" height="60" as="geometry" />
        </mxCell>
        <mxCell id="1a8abee3a6cfdf20-15" value="" style="verticalLabelPosition=bottom;html=1;verticalAlign=top;strokeWidth=1;dashed=0;shape=mxgraph.aws3d.application_server;fillColor=#ECECEC;strokeColor=#5E5E5E;aspect=fixed;rounded=1;shadow=0;comic=0;fontSize=12" parent="1" vertex="1">
          <mxGeometry x="1095" y="1130" width="123" height="124" as="geometry" />
        </mxCell>
        <mxCell id="1a8abee3a6cfdf20-16" value="" style="verticalLabelPosition=bottom;html=1;verticalAlign=top;strokeWidth=1;dashed=0;shape=mxgraph.aws3d.application_server;fillColor=#ECECEC;strokeColor=#5E5E5E;aspect=fixed;rounded=1;shadow=0;comic=0;fontSize=12" parent="1" vertex="1">
          <mxGeometry x="1025" y="1170" width="123" height="124" as="geometry" />
        </mxCell>
        <mxCell id="1a8abee3a6cfdf20-17" value="" style="verticalLabelPosition=bottom;html=1;verticalAlign=top;strokeWidth=1;dashed=0;shape=mxgraph.aws3d.application_server;fillColor=#ECECEC;strokeColor=#5E5E5E;aspect=fixed;rounded=1;shadow=0;comic=0;fontSize=12" parent="1" vertex="1">
          <mxGeometry x="1165" y="1170" width="123" height="124" as="geometry" />
        </mxCell>
        <mxCell id="1a8abee3a6cfdf20-18" value="" style="verticalLabelPosition=bottom;html=1;verticalAlign=top;strokeWidth=1;dashed=0;shape=mxgraph.aws3d.application_server;fillColor=#ECECEC;strokeColor=#5E5E5E;aspect=fixed;rounded=1;shadow=0;comic=0;fontSize=12" parent="1" vertex="1">
          <mxGeometry x="1095" y="1210" width="123" height="124" as="geometry" />
        </mxCell>
        <mxCell id="1a8abee3a6cfdf20-19" value="" style="verticalLabelPosition=bottom;html=1;verticalAlign=top;strokeWidth=1;dashed=0;shape=mxgraph.aws3d.elasticBeanstalk;fillColor=#ECECEC;strokeColor=#5E5E5E;aspect=fixed;rounded=1;shadow=0;comic=0;fontSize=12" parent="1" vertex="1">
          <mxGeometry x="1352" y="1333" width="182" height="140" as="geometry" />
        </mxCell>
        <mxCell id="1a8abee3a6cfdf20-20" value="" style="verticalLabelPosition=bottom;html=1;verticalAlign=top;strokeWidth=1;dashed=0;shape=mxgraph.aws3d.simpleDb2;fillColor=#004C99;strokeColor=#99CCFF;aspect=fixed;rounded=1;shadow=0;comic=0;fontSize=12" parent="1" vertex="1">
          <mxGeometry x="1662" y="1129" width="181.5" height="192.6" as="geometry" />
        </mxCell>
        <mxCell id="1a8abee3a6cfdf20-22" value="" style="verticalLabelPosition=bottom;html=1;verticalAlign=top;strokeWidth=1;dashed=0;shape=mxgraph.aws3d.dataCenter;fillColor=#ffffff;strokeColor=#5E5E5E;aspect=fixed;rounded=1;shadow=0;comic=0;fontSize=12" parent="1" vertex="1">
          <mxGeometry x="1386" y="972" width="123" height="142" as="geometry" />
        </mxCell>
        <mxCell id="1a8abee3a6cfdf20-23" value="" style="verticalLabelPosition=bottom;html=1;verticalAlign=top;strokeWidth=1;dashed=0;shape=mxgraph.aws3d.application2;fillColor=#86E83A;strokeColor=#B0F373;aspect=fixed;rounded=1;shadow=0;comic=0;fontSize=12" parent="1" vertex="1">
          <mxGeometry x="1417" y="975" width="62" height="53" as="geometry" />
        </mxCell>
        <mxCell id="1a8abee3a6cfdf20-25" value="" style="verticalLabelPosition=bottom;html=1;verticalAlign=top;strokeWidth=1;dashed=0;shape=mxgraph.aws3d.arrowhead;aspect=fixed;rounded=1;shadow=0;comic=0;fillColor=none;fontFamily=Verdana;fontSize=12;fontColor=#000000;flipV=1;" parent="1" vertex="1">
          <mxGeometry x="341" y="1291" width="39" height="23" as="geometry" />
        </mxCell>
        <mxCell id="1a8abee3a6cfdf20-27" value="" style="verticalLabelPosition=bottom;html=1;verticalAlign=top;strokeWidth=1;dashed=0;shape=mxgraph.aws3d.arrowhead;aspect=fixed;rounded=1;shadow=0;comic=0;fillColor=none;fontFamily=Verdana;fontSize=12;fontColor=#000000;flipV=1;" parent="1" vertex="1">
          <mxGeometry x="401" y="1328" width="39" height="23" as="geometry" />
        </mxCell>
        <mxCell id="1a8abee3a6cfdf20-1" value="" style="verticalLabelPosition=bottom;html=1;verticalAlign=top;strokeWidth=1;dashed=0;shape=mxgraph.aws3d.secureConnection;fillColor=#000000;strokeColor=#ffffff;aspect=fixed;rounded=1;shadow=0;comic=0;fontSize=12" parent="1" vertex="1">
          <mxGeometry x="203" y="1068" width="56.99999999999999" height="34" as="geometry" />
        </mxCell>
        <mxCell id="1a8abee3a6cfdf20-29" value="" style="verticalLabelPosition=bottom;html=1;verticalAlign=top;strokeWidth=1;dashed=0;shape=mxgraph.aws3d.dashedEdgeDouble;fillColor=#000000;aspect=fixed;rounded=1;shadow=0;comic=0;fontFamily=Verdana;fontSize=12;flipV=1;" parent="1" vertex="1">
          <mxGeometry x="434" y="920" width="87" height="50" as="geometry" />
        </mxCell>
        <mxCell id="1a8abee3a6cfdf20-30" value="" style="verticalLabelPosition=bottom;html=1;verticalAlign=top;strokeWidth=1;dashed=0;shape=mxgraph.aws3d.dashedEdgeDouble;fillColor=#000000;aspect=fixed;rounded=1;shadow=0;comic=0;fontFamily=Verdana;fontSize=12;flipV=1;" parent="1" vertex="1">
          <mxGeometry x="689" y="777" width="87" height="50" as="geometry" />
        </mxCell>
        <mxCell id="1a8abee3a6cfdf20-33" value="" style="verticalLabelPosition=bottom;html=1;verticalAlign=top;strokeWidth=1;dashed=0;shape=mxgraph.aws3d.arrowSE;fillColor=#000000;aspect=fixed;rounded=1;shadow=0;comic=0;fontFamily=Verdana;fontSize=12;" parent="1" vertex="1">
          <mxGeometry x="417" y="788" width="88" height="50" as="geometry" />
        </mxCell>
        <mxCell id="1a8abee3a6cfdf20-34" value="" style="verticalLabelPosition=bottom;html=1;verticalAlign=top;strokeWidth=1;dashed=0;shape=mxgraph.aws3d.arrowSW;fillColor=#000000;aspect=fixed;rounded=1;shadow=0;comic=0;fontFamily=Verdana;fontSize=12;" parent="1" vertex="1">
          <mxGeometry x="432" y="478" width="362" height="207" as="geometry" />
        </mxCell>
        <mxCell id="1a8abee3a6cfdf20-35" value="" style="verticalLabelPosition=bottom;html=1;verticalAlign=top;strokeWidth=1;dashed=0;shape=mxgraph.aws3d.arrowSE;fillColor=#000000;aspect=fixed;rounded=1;shadow=0;comic=0;fontFamily=Verdana;fontSize=12" parent="1" vertex="1">
          <mxGeometry x="1295" y="993" width="57" height="33" as="geometry" />
        </mxCell>
        <mxCell id="1a8abee3a6cfdf20-36" value="" style="verticalLabelPosition=bottom;html=1;verticalAlign=top;strokeWidth=1;dashed=0;shape=mxgraph.aws3d.arrowSW;fillColor=#000000;aspect=fixed;rounded=1;shadow=0;comic=0;fontFamily=Verdana;fontSize=12" parent="1" vertex="1">
          <mxGeometry x="1522" y="922" width="195" height="110" as="geometry" />
        </mxCell>
        <mxCell id="1a8abee3a6cfdf20-37" value="" style="verticalLabelPosition=bottom;html=1;verticalAlign=top;strokeWidth=1;dashed=0;shape=mxgraph.aws3d.arrowSW;fillColor=#000000;aspect=fixed;rounded=1;shadow=0;comic=0;fontFamily=Verdana;fontSize=12" parent="1" vertex="1">
          <mxGeometry x="1276" y="1105" width="119" height="68" as="geometry" />
        </mxCell>
        <mxCell id="1a8abee3a6cfdf20-39" value="" style="verticalLabelPosition=bottom;html=1;verticalAlign=top;strokeWidth=1;dashed=0;shape=mxgraph.aws3d.arrowSE;fillColor=#000000;aspect=fixed;rounded=1;shadow=0;comic=0;fontFamily=Verdana;fontSize=12" parent="1" vertex="1">
          <mxGeometry x="1250" y="1314" width="102" height="58" as="geometry" />
        </mxCell>
        <mxCell id="d5ac148becb70bc-1" value="" style="verticalLabelPosition=bottom;html=1;verticalAlign=top;strokeWidth=1;dashed=0;shape=mxgraph.aws3d.arrowSE;fillColor=#000000;aspect=fixed;rounded=1;shadow=0;comic=0;fontFamily=Verdana;fontSize=12" parent="1" vertex="1">
          <mxGeometry x="1509" y="1458" width="143" height="81" as="geometry" />
        </mxCell>
        <mxCell id="d5ac148becb70bc-2" value="" style="verticalLabelPosition=bottom;html=1;verticalAlign=top;strokeWidth=1;dashed=0;shape=mxgraph.aws3d.snapshot;fillColor=#4286c5;strokeColor=#57A2D8;aspect=fixed;rounded=1;shadow=0;comic=0;fontFamily=Verdana;fontSize=12" parent="1" vertex="1">
          <mxGeometry x="1942" y="1408" width="92" height="60" as="geometry" />
        </mxCell>
        <mxCell id="d5ac148becb70bc-3" value="" style="verticalLabelPosition=bottom;html=1;verticalAlign=top;strokeWidth=1;dashed=0;shape=mxgraph.aws3d.rdsMaster;fillColor=#ECECEC;strokeColor=#5E5E5E;aspect=fixed;rounded=1;shadow=0;comic=0;fontFamily=Verdana;fontSize=12" parent="1" vertex="1">
          <mxGeometry x="1662" y="1492" width="123" height="133" as="geometry" />
        </mxCell>
        <mxCell id="d5ac148becb70bc-4" value="" style="verticalLabelPosition=bottom;html=1;verticalAlign=top;strokeWidth=1;dashed=0;shape=mxgraph.aws3d.arrowSW;fillColor=#000000;aspect=fixed;rounded=1;shadow=0;comic=0;fontFamily=Verdana;fontSize=12" parent="1" vertex="1">
          <mxGeometry x="1792" y="1458" width="171" height="97" as="geometry" />
        </mxCell>
        <mxCell id="d5ac148becb70bc-5" value="" style="verticalLabelPosition=bottom;html=1;verticalAlign=top;strokeWidth=1;dashed=0;shape=mxgraph.aws3d.arrowSE;fillColor=#000000;aspect=fixed;rounded=1;shadow=0;comic=0;fontFamily=Verdana;fontSize=12" parent="1" vertex="1">
          <mxGeometry x="1832" y="1317" width="134" height="76" as="geometry" />
        </mxCell>
        <mxCell id="d5ac148becb70bc-6" value="" style="verticalLabelPosition=bottom;html=1;verticalAlign=top;strokeWidth=1;dashed=0;shape=mxgraph.aws3d.arrowSW;fillColor=#000000;aspect=fixed;rounded=1;shadow=0;comic=0;fontFamily=Verdana;fontSize=12" parent="1" vertex="1">
          <mxGeometry x="2092" y="1241" width="246" height="140" as="geometry" />
        </mxCell>
        <mxCell id="d5ac148becb70bc-8" value="" style="verticalLabelPosition=bottom;html=1;verticalAlign=top;strokeWidth=1;dashed=0;shape=mxgraph.aws3d.dashedArrowlessEdge;aspect=fixed;rounded=1;shadow=0;comic=0;fontFamily=Verdana;fontSize=12" parent="1" vertex="1">
          <mxGeometry x="840" y="565" width="1432" height="816" as="geometry" />
        </mxCell>
        <mxCell id="d5ac148becb70bc-9" value="" style="verticalLabelPosition=bottom;html=1;verticalAlign=top;strokeWidth=1;dashed=0;shape=mxgraph.aws3d.dashedArrowlessEdge;aspect=fixed;rounded=1;shadow=0;comic=0;fontFamily=Verdana;fontSize=12" parent="1" vertex="1">
          <mxGeometry x="592" y="705" width="1432" height="816" as="geometry" />
        </mxCell>
        <mxCell id="d5ac148becb70bc-10" value="" style="verticalLabelPosition=bottom;html=1;verticalAlign=top;strokeWidth=1;dashed=0;shape=mxgraph.aws3d.dashedArrowlessEdge;fillColor=#000000;aspect=fixed;rounded=1;shadow=0;comic=0;fontFamily=Verdana;fontSize=12;fontColor=#000000;flipV=1;" parent="1" vertex="1">
          <mxGeometry x="592" y="564" width="248" height="141" as="geometry" />
        </mxCell>
        <mxCell id="d5ac148becb70bc-12" value="" style="verticalLabelPosition=bottom;html=1;verticalAlign=top;strokeWidth=1;dashed=0;shape=mxgraph.aws3d.dashedArrowlessEdge;aspect=fixed;rounded=1;shadow=0;comic=0;fontFamily=Verdana;fontSize=12;flipV=1;" parent="1" vertex="1">
          <mxGeometry x="2023" y="1378" width="249" height="142" as="geometry" />
        </mxCell>
        <mxCell id="1a8abee3a6cfdf20-2" value="" style="verticalLabelPosition=bottom;html=1;verticalAlign=top;strokeWidth=1;dashed=0;shape=mxgraph.aws3d.secureConnection;fillColor=#000000;strokeColor=#ffffff;aspect=fixed;rounded=1;shadow=0;comic=0;fontSize=12" parent="1" vertex="1">
          <mxGeometry x="911" y="1358" width="56.99999999999999" height="34" as="geometry" />
        </mxCell>
        <mxCell id="d5ac148becb70bc-14" value="" style="edgeStyle=isometricEdgeStyle;endArrow=none;html=1;labelBackgroundColor=none;strokeWidth=5;fontFamily=Verdana;fontSize=12" parent="1" edge="1">
          <mxGeometry width="50" height="100" relative="1" as="geometry">
            <mxPoint x="462" y="1368" as="sourcePoint" />
            <mxPoint x="1602" y="1668" as="targetPoint" />
            <Array as="points">
              <mxPoint x="902" y="1558" />
            </Array>
          </mxGeometry>
        </mxCell>
        <mxCell id="d5ac148becb70bc-15" value="" style="verticalLabelPosition=bottom;html=1;verticalAlign=top;strokeWidth=1;dashed=0;shape=mxgraph.aws3d.arrowhead;aspect=fixed;rounded=1;shadow=0;comic=0;fillColor=none;fontFamily=Verdana;fontSize=12;fontColor=#000000;flipV=1;" parent="1" vertex="1">
          <mxGeometry x="443" y="1356" width="39" height="23" as="geometry" />
        </mxCell>
        <mxCell id="d5ac148becb70bc-16" value="" style="verticalLabelPosition=bottom;html=1;verticalAlign=top;strokeWidth=1;dashed=0;shape=mxgraph.aws3d.secureConnection;fillColor=#000000;strokeColor=#ffffff;aspect=fixed;rounded=1;shadow=0;comic=0;fontSize=12" parent="1" vertex="1">
          <mxGeometry x="1538" y="1668" width="56.99999999999999" height="34" as="geometry" />
        </mxCell>
        <mxCell id="tn5Z56rq1ckg7p4QWyFK-1" value="" style="whiteSpace=wrap;html=1;aspect=fixed;" vertex="1" parent="1">
          <mxGeometry x="550" y="850" width="80" height="80" as="geometry" />
        </mxCell>
      </root>
    </mxGraphModel>
  </diagram>
  <diagram id="V_cPaghn7TDRuaEslIJm" name="第 2 页">
    <mxGraphModel dx="1615" dy="-6" grid="1" gridSize="10" guides="1" tooltips="1" connect="1" arrows="1" fold="1" page="1" pageScale="1" pageWidth="1600" pageHeight="900" math="0" shadow="0">
      <root>
        <mxCell id="0" />
        <mxCell id="1" parent="0" />
        <mxCell id="yLzieccpZnZnA55vvNeB-11" value="" style="rounded=0;whiteSpace=wrap;html=1;fillColor=none;strokeColor=#0066CC;dashed=1;dashPattern=12 12;strokeWidth=2;" vertex="1" parent="1">
          <mxGeometry x="1180" y="1654.1" width="350" height="135.9" as="geometry" />
        </mxCell>
        <mxCell id="yLzieccpZnZnA55vvNeB-9" value="" style="rounded=0;whiteSpace=wrap;html=1;fillColor=none;strokeColor=#0066CC;dashed=1;dashPattern=12 12;strokeWidth=2;" vertex="1" parent="1">
          <mxGeometry x="1180" y="1478.48" width="350" height="161.52" as="geometry" />
        </mxCell>
        <mxCell id="yLzieccpZnZnA55vvNeB-5" value="" style="rounded=0;whiteSpace=wrap;html=1;fillColor=none;strokeColor=#0066CC;dashed=1;dashPattern=12 12;strokeWidth=2;" vertex="1" parent="1">
          <mxGeometry x="1180" y="1220" width="350" height="240" as="geometry" />
        </mxCell>
        <mxCell id="yLzieccpZnZnA55vvNeB-3" value="" style="rounded=0;whiteSpace=wrap;html=1;fillColor=none;strokeColor=#0066CC;dashed=1;dashPattern=12 12;strokeWidth=2;" vertex="1" parent="1">
          <mxGeometry x="1180" y="920" width="350" height="290" as="geometry" />
        </mxCell>
        <mxCell id="hGf28Osnukpp9GlgO2x2-1" value="" style="verticalLabelPosition=bottom;html=1;verticalAlign=top;strokeWidth=1;dashed=0;shape=mxgraph.aws3d.application_server;fillColor=#ECECEC;strokeColor=#5E5E5E;aspect=fixed;rounded=1;shadow=0;comic=0;fontSize=12" vertex="1" parent="1">
          <mxGeometry x="1280.96" y="950" width="29.76" height="30" as="geometry" />
        </mxCell>
        <mxCell id="hGf28Osnukpp9GlgO2x2-2" value="" style="verticalLabelPosition=bottom;html=1;verticalAlign=top;strokeWidth=1;dashed=0;shape=mxgraph.aws3d.application_server;fillColor=#ECECEC;strokeColor=#5E5E5E;aspect=fixed;rounded=1;shadow=0;comic=0;fontSize=12" vertex="1" parent="1">
          <mxGeometry x="1280.96" y="980" width="29.76" height="30" as="geometry" />
        </mxCell>
        <mxCell id="hGf28Osnukpp9GlgO2x2-3" value="" style="verticalLabelPosition=bottom;html=1;verticalAlign=top;strokeWidth=1;dashed=0;shape=mxgraph.aws3d.application_server;fillColor=#ECECEC;strokeColor=#5E5E5E;aspect=fixed;rounded=1;shadow=0;comic=0;fontSize=12" vertex="1" parent="1">
          <mxGeometry x="1280.24" y="1010" width="30" height="30.24" as="geometry" />
        </mxCell>
        <mxCell id="fnGzRQTPhac6anJt4E-d-1" value="&lt;font style=&quot;font-size: 12px;&quot;&gt;&lt;font style=&quot;font-size: 12px;&quot;&gt;怡园-A区-学生一食堂&amp;nbsp;&lt;/font&gt;&lt;span style=&quot;background-color: initial;&quot;&gt;1000001&lt;/span&gt;&lt;/font&gt;" style="text;strokeColor=none;align=left;fillColor=none;html=1;verticalAlign=middle;whiteSpace=wrap;rounded=0;fontSize=10;" vertex="1" parent="1">
          <mxGeometry x="1320.24" y="950" width="190" height="30" as="geometry" />
        </mxCell>
        <mxCell id="fnGzRQTPhac6anJt4E-d-2" value="怡园-A区-学生二食堂&amp;nbsp;&lt;span style=&quot;background-color: initial;&quot;&gt;1000003&lt;/span&gt;" style="text;strokeColor=none;align=left;fillColor=none;html=1;verticalAlign=middle;whiteSpace=wrap;rounded=0;fontSize=10;" vertex="1" parent="1">
          <mxGeometry x="1320.96" y="980" width="190" height="30" as="geometry" />
        </mxCell>
        <mxCell id="fnGzRQTPhac6anJt4E-d-3" value="怡园-清真食堂&amp;nbsp;&lt;span style=&quot;background-color: initial;&quot;&gt;1000004&lt;/span&gt;" style="text;strokeColor=none;align=left;fillColor=none;html=1;verticalAlign=middle;whiteSpace=wrap;rounded=0;fontSize=10;" vertex="1" parent="1">
          <mxGeometry x="1321.44" y="1010.48" width="140" height="30" as="geometry" />
        </mxCell>
        <mxCell id="fnGzRQTPhac6anJt4E-d-4" value="" style="verticalLabelPosition=bottom;html=1;verticalAlign=top;strokeWidth=1;dashed=0;shape=mxgraph.aws3d.application_server;fillColor=#ECECEC;strokeColor=#5E5E5E;aspect=fixed;rounded=1;shadow=0;comic=0;fontSize=12" vertex="1" parent="1">
          <mxGeometry x="1281.9199999999998" y="1100.76" width="30" height="30.24" as="geometry" />
        </mxCell>
        <mxCell id="fnGzRQTPhac6anJt4E-d-6" value="" style="verticalLabelPosition=bottom;html=1;verticalAlign=top;strokeWidth=1;dashed=0;shape=mxgraph.aws3d.application_server;fillColor=#ECECEC;strokeColor=#5E5E5E;aspect=fixed;rounded=1;shadow=0;comic=0;fontSize=12" vertex="1" parent="1">
          <mxGeometry x="1281.9199999999998" y="1131" width="30" height="29.24" as="geometry" />
        </mxCell>
        <mxCell id="fnGzRQTPhac6anJt4E-d-7" value="&lt;div style=&quot;font-size: 10px;&quot;&gt;怡园-C区-学生一食堂 1000005&lt;/div&gt;" style="text;strokeColor=none;align=left;fillColor=none;html=1;verticalAlign=middle;whiteSpace=wrap;rounded=0;fontSize=10;" vertex="1" parent="1">
          <mxGeometry x="1322.1599999999999" y="1101" width="189.52" height="30" as="geometry" />
        </mxCell>
        <mxCell id="fnGzRQTPhac6anJt4E-d-8" value="&lt;div style=&quot;font-size: 10px;&quot;&gt;怡园-C区2F-风味餐厅 1000011&lt;/div&gt;" style="text;strokeColor=none;align=left;fillColor=none;html=1;verticalAlign=middle;whiteSpace=wrap;rounded=0;fontSize=10;" vertex="1" parent="1">
          <mxGeometry x="1321.9199999999998" y="1130.24" width="179.52" height="30" as="geometry" />
        </mxCell>
        <mxCell id="fnGzRQTPhac6anJt4E-d-9" value="" style="verticalLabelPosition=bottom;html=1;verticalAlign=top;strokeWidth=1;dashed=0;shape=mxgraph.aws3d.application_server;fillColor=#ECECEC;strokeColor=#5E5E5E;aspect=fixed;rounded=1;shadow=0;comic=0;fontSize=12" vertex="1" parent="1">
          <mxGeometry x="1280.96" y="1041" width="30" height="29.24" as="geometry" />
        </mxCell>
        <mxCell id="fnGzRQTPhac6anJt4E-d-10" value="&lt;div&gt;怡园-A区3F-食堂&amp;nbsp;&lt;span style=&quot;background-color: initial;&quot;&gt;1000014&lt;/span&gt;&lt;/div&gt;" style="text;strokeColor=none;align=left;fillColor=none;html=1;verticalAlign=middle;whiteSpace=wrap;rounded=0;" vertex="1" parent="1">
          <mxGeometry x="1320.96" y="1040.24" width="189.52" height="29.52" as="geometry" />
        </mxCell>
        <mxCell id="fnGzRQTPhac6anJt4E-d-11" value="" style="verticalLabelPosition=bottom;html=1;verticalAlign=top;strokeWidth=1;dashed=0;shape=mxgraph.aws3d.application_server;fillColor=#ECECEC;strokeColor=#5E5E5E;aspect=fixed;rounded=1;shadow=0;comic=0;fontSize=12" vertex="1" parent="1">
          <mxGeometry x="1284.6399999999999" y="1161" width="30" height="29.24" as="geometry" />
        </mxCell>
        <mxCell id="fnGzRQTPhac6anJt4E-d-12" value="&lt;div&gt;怡园-C区3F-风味餐厅&amp;nbsp;&lt;span style=&quot;background-color: initial;&quot;&gt;1000031&lt;/span&gt;&lt;/div&gt;" style="text;strokeColor=none;align=left;fillColor=none;html=1;verticalAlign=middle;whiteSpace=wrap;rounded=0;" vertex="1" parent="1">
          <mxGeometry x="1324.6399999999999" y="1160.24" width="190" height="30" as="geometry" />
        </mxCell>
        <mxCell id="fnGzRQTPhac6anJt4E-d-13" value="" style="verticalLabelPosition=bottom;html=1;verticalAlign=top;strokeWidth=1;dashed=0;shape=mxgraph.aws3d.application_server;fillColor=#ECECEC;strokeColor=#5E5E5E;aspect=fixed;rounded=1;shadow=0;comic=0;fontSize=12" vertex="1" parent="1">
          <mxGeometry x="1281.92" y="1070.76" width="30" height="29.24" as="geometry" />
        </mxCell>
        <mxCell id="fnGzRQTPhac6anJt4E-d-14" value="&lt;div&gt;怡园-A区1F-学生附一食堂&amp;nbsp;&lt;span style=&quot;background-color: initial;&quot;&gt;1000032&lt;/span&gt;&lt;/div&gt;" style="text;strokeColor=none;align=left;fillColor=none;html=1;verticalAlign=middle;whiteSpace=wrap;rounded=0;" vertex="1" parent="1">
          <mxGeometry x="1321.92" y="1070.76" width="199.52" height="30" as="geometry" />
        </mxCell>
        <mxCell id="fnGzRQTPhac6anJt4E-d-16" value="" style="verticalLabelPosition=bottom;html=1;verticalAlign=top;strokeWidth=1;dashed=0;shape=mxgraph.aws3d.application_server;fillColor=#ECECEC;strokeColor=#5E5E5E;aspect=fixed;rounded=1;shadow=0;comic=0;fontSize=12" vertex="1" parent="1">
          <mxGeometry x="1280.24" y="1241" width="30" height="30.24" as="geometry" />
        </mxCell>
        <mxCell id="fnGzRQTPhac6anJt4E-d-17" value="" style="verticalLabelPosition=bottom;html=1;verticalAlign=top;strokeWidth=1;dashed=0;shape=mxgraph.aws3d.application_server;fillColor=#ECECEC;strokeColor=#5E5E5E;aspect=fixed;rounded=1;shadow=0;comic=0;fontSize=12" vertex="1" parent="1">
          <mxGeometry x="1281.2" y="1301.3799999999999" width="30" height="29.24" as="geometry" />
        </mxCell>
        <mxCell id="fnGzRQTPhac6anJt4E-d-18" value="&lt;div&gt;憬园-A区1F-学生一食堂 1000017&lt;/div&gt;" style="text;strokeColor=none;align=left;fillColor=none;html=1;verticalAlign=middle;whiteSpace=wrap;rounded=0;" vertex="1" parent="1">
          <mxGeometry x="1321.2" y="1241" width="200.24" height="30" as="geometry" />
        </mxCell>
        <mxCell id="fnGzRQTPhac6anJt4E-d-19" value="&lt;div&gt;憬园-B区1F-学生一食堂 1000021&lt;/div&gt;" style="text;strokeColor=none;align=left;fillColor=none;html=1;verticalAlign=middle;whiteSpace=wrap;rounded=0;" vertex="1" parent="1">
          <mxGeometry x="1321.1999999999998" y="1301" width="200.24" height="30" as="geometry" />
        </mxCell>
        <mxCell id="fnGzRQTPhac6anJt4E-d-20" value="" style="verticalLabelPosition=bottom;html=1;verticalAlign=top;strokeWidth=1;dashed=0;shape=mxgraph.aws3d.application_server;fillColor=#ECECEC;strokeColor=#5E5E5E;aspect=fixed;rounded=1;shadow=0;comic=0;fontSize=12" vertex="1" parent="1">
          <mxGeometry x="1281.68" y="1389.48" width="30" height="29.24" as="geometry" />
        </mxCell>
        <mxCell id="fnGzRQTPhac6anJt4E-d-21" value="&lt;div&gt;憬园-C区1F-清真食堂&amp;nbsp;&lt;span style=&quot;background-color: initial;&quot;&gt;1000022&lt;/span&gt;&lt;/div&gt;" style="text;strokeColor=none;align=left;fillColor=none;html=1;verticalAlign=middle;whiteSpace=wrap;rounded=0;" vertex="1" parent="1">
          <mxGeometry x="1321.2" y="1389.48" width="189.52" height="30" as="geometry" />
        </mxCell>
        <mxCell id="fnGzRQTPhac6anJt4E-d-22" value="" style="verticalLabelPosition=bottom;html=1;verticalAlign=top;strokeWidth=1;dashed=0;shape=mxgraph.aws3d.application_server;fillColor=#ECECEC;strokeColor=#5E5E5E;aspect=fixed;rounded=1;shadow=0;comic=0;fontSize=12" vertex="1" parent="1">
          <mxGeometry x="1281.68" y="1418.72" width="30" height="29.24" as="geometry" />
        </mxCell>
        <mxCell id="fnGzRQTPhac6anJt4E-d-23" value="&lt;div&gt;憬园-C区2F-清真食堂&amp;nbsp;&lt;span style=&quot;background-color: initial;&quot;&gt;1000023&lt;/span&gt;&lt;/div&gt;" style="text;strokeColor=none;align=left;fillColor=none;html=1;verticalAlign=middle;whiteSpace=wrap;rounded=0;" vertex="1" parent="1">
          <mxGeometry x="1320.72" y="1417.96" width="190.48" height="30" as="geometry" />
        </mxCell>
        <mxCell id="fnGzRQTPhac6anJt4E-d-24" value="" style="verticalLabelPosition=bottom;html=1;verticalAlign=top;strokeWidth=1;dashed=0;shape=mxgraph.aws3d.application_server;fillColor=#ECECEC;strokeColor=#5E5E5E;aspect=fixed;rounded=1;shadow=0;comic=0;fontSize=12" vertex="1" parent="1">
          <mxGeometry x="1281.68" y="1331" width="30" height="29.24" as="geometry" />
        </mxCell>
        <mxCell id="fnGzRQTPhac6anJt4E-d-25" value="&lt;div&gt;&lt;span style=&quot;background-color: initial;&quot;&gt;憬园-B区2F-学生二食堂&amp;nbsp;&lt;/span&gt;&lt;span style=&quot;background-color: initial;&quot;&gt;1000024&lt;/span&gt;&lt;br&gt;&lt;/div&gt;" style="text;strokeColor=none;align=left;fillColor=none;html=1;verticalAlign=middle;whiteSpace=wrap;rounded=0;" vertex="1" parent="1">
          <mxGeometry x="1320" y="1331" width="200.24" height="30" as="geometry" />
        </mxCell>
        <mxCell id="fnGzRQTPhac6anJt4E-d-30" value="" style="verticalLabelPosition=bottom;html=1;verticalAlign=top;strokeWidth=1;dashed=0;shape=mxgraph.aws3d.application_server;fillColor=#ECECEC;strokeColor=#5E5E5E;aspect=fixed;rounded=1;shadow=0;comic=0;fontSize=12" vertex="1" parent="1">
          <mxGeometry x="1281.2" y="1271.76" width="30" height="29.24" as="geometry" />
        </mxCell>
        <mxCell id="fnGzRQTPhac6anJt4E-d-31" value="&lt;div&gt;憬园-A区2F-风味餐厅&amp;nbsp;&lt;span style=&quot;background-color: initial;&quot;&gt;1000025&lt;/span&gt;&lt;/div&gt;" style="text;strokeColor=none;align=left;fillColor=none;html=1;verticalAlign=middle;whiteSpace=wrap;rounded=0;" vertex="1" parent="1">
          <mxGeometry x="1321.2" y="1270" width="190.72" height="31" as="geometry" />
        </mxCell>
        <mxCell id="fnGzRQTPhac6anJt4E-d-32" value="" style="verticalLabelPosition=bottom;html=1;verticalAlign=top;strokeWidth=1;dashed=0;shape=mxgraph.aws3d.application_server;fillColor=#ECECEC;strokeColor=#5E5E5E;aspect=fixed;rounded=1;shadow=0;comic=0;fontSize=12" vertex="1" parent="1">
          <mxGeometry x="1281.68" y="1360.24" width="30" height="29.24" as="geometry" />
        </mxCell>
        <mxCell id="fnGzRQTPhac6anJt4E-d-33" value="&lt;div&gt;&lt;span style=&quot;background-color: initial;&quot;&gt;憬园-B区3F-食堂&amp;nbsp;&lt;/span&gt;&lt;span style=&quot;background-color: initial;&quot;&gt;1000125&lt;/span&gt;&lt;/div&gt;" style="text;strokeColor=none;align=left;fillColor=none;html=1;verticalAlign=middle;whiteSpace=wrap;rounded=0;" vertex="1" parent="1">
          <mxGeometry x="1321.2" y="1359.48" width="180.72" height="30" as="geometry" />
        </mxCell>
        <mxCell id="fnGzRQTPhac6anJt4E-d-42" value="" style="verticalLabelPosition=bottom;html=1;verticalAlign=top;strokeWidth=1;dashed=0;shape=mxgraph.aws3d.application_server;fillColor=#ECECEC;strokeColor=#5E5E5E;aspect=fixed;rounded=1;shadow=0;comic=0;fontSize=12" vertex="1" parent="1">
          <mxGeometry x="1281.68" y="1530" width="30" height="31.24" as="geometry" />
        </mxCell>
        <mxCell id="fnGzRQTPhac6anJt4E-d-43" value="&lt;div&gt;恬园-风味餐厅&amp;nbsp;1000040&lt;/div&gt;" style="text;strokeColor=none;align=left;fillColor=none;html=1;verticalAlign=middle;whiteSpace=wrap;rounded=0;" vertex="1" parent="1">
          <mxGeometry x="1321.2" y="1558.48" width="189.52" height="32" as="geometry" />
        </mxCell>
        <mxCell id="fnGzRQTPhac6anJt4E-d-44" value="" style="verticalLabelPosition=bottom;html=1;verticalAlign=top;strokeWidth=1;dashed=0;shape=mxgraph.aws3d.application_server;fillColor=#ECECEC;strokeColor=#5E5E5E;aspect=fixed;rounded=1;shadow=0;comic=0;fontSize=12" vertex="1" parent="1">
          <mxGeometry x="1281.68" y="1588.48" width="30" height="31.24" as="geometry" />
        </mxCell>
        <mxCell id="fnGzRQTPhac6anJt4E-d-45" value="&lt;div&gt;恬园-清真食堂&amp;nbsp;&lt;span style=&quot;background-color: initial;&quot;&gt;1000041&lt;/span&gt;&lt;/div&gt;" style="text;strokeColor=none;align=left;fillColor=none;html=1;verticalAlign=middle;whiteSpace=wrap;rounded=0;" vertex="1" parent="1">
          <mxGeometry x="1321.2" y="1587.72" width="190.48" height="32" as="geometry" />
        </mxCell>
        <mxCell id="fnGzRQTPhac6anJt4E-d-46" value="" style="verticalLabelPosition=bottom;html=1;verticalAlign=top;strokeWidth=1;dashed=0;shape=mxgraph.aws3d.application_server;fillColor=#ECECEC;strokeColor=#5E5E5E;aspect=fixed;rounded=1;shadow=0;comic=0;fontSize=12" vertex="1" parent="1">
          <mxGeometry x="1281.68" y="1500" width="30" height="31.24" as="geometry" />
        </mxCell>
        <mxCell id="fnGzRQTPhac6anJt4E-d-47" value="&lt;div&gt;&lt;span style=&quot;background-color: initial;&quot;&gt;恬园-学生一食堂&lt;/span&gt;&lt;span style=&quot;background-color: initial;&quot;&gt;&amp;nbsp;&lt;/span&gt;&lt;span style=&quot;background-color: initial;&quot;&gt;1000037&lt;/span&gt;&lt;br&gt;&lt;/div&gt;" style="text;strokeColor=none;align=left;fillColor=none;html=1;verticalAlign=middle;whiteSpace=wrap;rounded=0;" vertex="1" parent="1">
          <mxGeometry x="1321.2" y="1500" width="200.24" height="32" as="geometry" />
        </mxCell>
        <mxCell id="fnGzRQTPhac6anJt4E-d-48" value="&lt;div&gt;&lt;span style=&quot;background-color: initial;&quot;&gt;恬园-学生二食堂&lt;/span&gt;&lt;span style=&quot;background-color: initial;&quot;&gt;&amp;nbsp;&lt;/span&gt;&lt;span style=&quot;background-color: initial;&quot;&gt;1000038&lt;/span&gt;&lt;/div&gt;" style="text;strokeColor=none;align=left;fillColor=none;html=1;verticalAlign=middle;whiteSpace=wrap;rounded=0;" vertex="1" parent="1">
          <mxGeometry x="1321.2" y="1530" width="180.72" height="32" as="geometry" />
        </mxCell>
        <mxCell id="fnGzRQTPhac6anJt4E-d-49" value="" style="verticalLabelPosition=bottom;html=1;verticalAlign=top;strokeWidth=1;dashed=0;shape=mxgraph.aws3d.application_server;fillColor=#ECECEC;strokeColor=#5E5E5E;aspect=fixed;rounded=1;shadow=0;comic=0;fontSize=12" vertex="1" parent="1">
          <mxGeometry x="1281.68" y="1559.24" width="30" height="31.24" as="geometry" />
        </mxCell>
        <mxCell id="fnGzRQTPhac6anJt4E-d-50" value="" style="verticalLabelPosition=bottom;html=1;verticalAlign=top;strokeWidth=1;dashed=0;shape=mxgraph.aws3d.application_server;fillColor=#ECECEC;strokeColor=#5E5E5E;aspect=fixed;rounded=1;shadow=0;comic=0;fontSize=12" vertex="1" parent="1">
          <mxGeometry x="1280.24" y="1719.62" width="30" height="31.24" as="geometry" />
        </mxCell>
        <mxCell id="fnGzRQTPhac6anJt4E-d-51" value="&lt;div&gt;恒园-3F-三食堂&amp;nbsp;1000129&lt;/div&gt;" style="text;strokeColor=none;align=left;fillColor=none;html=1;verticalAlign=middle;whiteSpace=wrap;rounded=0;" vertex="1" parent="1">
          <mxGeometry x="1319.76" y="1748.1" width="189.52" height="32" as="geometry" />
        </mxCell>
        <mxCell id="fnGzRQTPhac6anJt4E-d-54" value="" style="verticalLabelPosition=bottom;html=1;verticalAlign=top;strokeWidth=1;dashed=0;shape=mxgraph.aws3d.application_server;fillColor=#ECECEC;strokeColor=#5E5E5E;aspect=fixed;rounded=1;shadow=0;comic=0;fontSize=12" vertex="1" parent="1">
          <mxGeometry x="1280.24" y="1689.62" width="30" height="31.24" as="geometry" />
        </mxCell>
        <mxCell id="fnGzRQTPhac6anJt4E-d-55" value="&lt;div&gt;&lt;span style=&quot;background-color: initial;&quot;&gt;恒园-1F-一食堂&lt;/span&gt;&lt;span style=&quot;background-color: initial;&quot;&gt;&amp;nbsp;&lt;/span&gt;&lt;span style=&quot;background-color: initial;&quot;&gt;1000114&lt;/span&gt;&lt;br&gt;&lt;/div&gt;" style="text;strokeColor=none;align=left;fillColor=none;html=1;verticalAlign=middle;whiteSpace=wrap;rounded=0;" vertex="1" parent="1">
          <mxGeometry x="1319.76" y="1689.62" width="200.24" height="32" as="geometry" />
        </mxCell>
        <mxCell id="fnGzRQTPhac6anJt4E-d-56" value="&lt;div&gt;&lt;span style=&quot;background-color: initial;&quot;&gt;恒园-2F-二食堂&lt;/span&gt;&lt;span style=&quot;background-color: initial;&quot;&gt;&amp;nbsp;&lt;/span&gt;&lt;span style=&quot;background-color: initial;&quot;&gt;1000105&lt;/span&gt;&lt;/div&gt;" style="text;strokeColor=none;align=left;fillColor=none;html=1;verticalAlign=middle;whiteSpace=wrap;rounded=0;" vertex="1" parent="1">
          <mxGeometry x="1319.76" y="1719.62" width="180.72" height="32" as="geometry" />
        </mxCell>
        <mxCell id="fnGzRQTPhac6anJt4E-d-57" value="" style="verticalLabelPosition=bottom;html=1;verticalAlign=top;strokeWidth=1;dashed=0;shape=mxgraph.aws3d.application_server;fillColor=#ECECEC;strokeColor=#5E5E5E;aspect=fixed;rounded=1;shadow=0;comic=0;fontSize=12" vertex="1" parent="1">
          <mxGeometry x="1280.24" y="1749.62" width="29.27" height="30.48" as="geometry" />
        </mxCell>
        <mxCell id="yLzieccpZnZnA55vvNeB-4" value="&lt;h2 style=&quot;font-size: 20px;&quot;&gt;&lt;font style=&quot;font-size: 20px;&quot;&gt;&lt;font color=&quot;#0000ff&quot; style=&quot;font-size: 20px;&quot;&gt;怡园&lt;/font&gt;&lt;/font&gt;&lt;/h2&gt;" style="text;strokeColor=none;align=left;fillColor=none;html=1;verticalAlign=middle;whiteSpace=wrap;rounded=0;fontSize=20;" vertex="1" parent="1">
          <mxGeometry x="1470" y="920" width="50" height="30" as="geometry" />
        </mxCell>
        <mxCell id="yLzieccpZnZnA55vvNeB-6" value="&lt;h2 style=&quot;font-size: 20px;&quot;&gt;&lt;font style=&quot;font-size: 20px;&quot;&gt;&lt;font color=&quot;#0000ff&quot; style=&quot;font-size: 20px;&quot;&gt;憬园&lt;/font&gt;&lt;/font&gt;&lt;/h2&gt;" style="text;strokeColor=none;align=left;fillColor=none;html=1;verticalAlign=middle;whiteSpace=wrap;rounded=0;fontSize=20;" vertex="1" parent="1">
          <mxGeometry x="1470" y="1220" width="50" height="30" as="geometry" />
        </mxCell>
        <mxCell id="yLzieccpZnZnA55vvNeB-10" value="&lt;h2 style=&quot;font-size: 20px;&quot;&gt;&lt;font style=&quot;font-size: 20px;&quot;&gt;&lt;font color=&quot;#0000ff&quot; style=&quot;font-size: 20px;&quot;&gt;恬园&lt;/font&gt;&lt;/font&gt;&lt;/h2&gt;" style="text;strokeColor=none;align=left;fillColor=none;html=1;verticalAlign=middle;whiteSpace=wrap;rounded=0;fontSize=20;" vertex="1" parent="1">
          <mxGeometry x="1470" y="1478.48" width="50" height="30" as="geometry" />
        </mxCell>
        <mxCell id="yLzieccpZnZnA55vvNeB-12" value="&lt;h2 style=&quot;font-size: 20px;&quot;&gt;&lt;font style=&quot;font-size: 20px;&quot;&gt;&lt;font color=&quot;#0000ff&quot; style=&quot;font-size: 20px;&quot;&gt;恬园&lt;/font&gt;&lt;/font&gt;&lt;/h2&gt;" style="text;strokeColor=none;align=left;fillColor=none;html=1;verticalAlign=middle;whiteSpace=wrap;rounded=0;fontSize=20;" vertex="1" parent="1">
          <mxGeometry x="1470" y="1654.1" width="50" height="30" as="geometry" />
        </mxCell>
        <mxCell id="yLzieccpZnZnA55vvNeB-16" value="" style="verticalLabelPosition=bottom;html=1;verticalAlign=top;strokeWidth=1;align=center;outlineConnect=0;dashed=0;outlineConnect=0;shape=mxgraph.aws3d.dataServer;strokeColor=#5E5E5E;aspect=fixed;" vertex="1" parent="1">
          <mxGeometry x="1062.94" y="947.39" width="72.94" height="62.85" as="geometry" />
        </mxCell>
        <mxCell id="yLzieccpZnZnA55vvNeB-17" value="" style="verticalLabelPosition=bottom;html=1;verticalAlign=top;strokeWidth=1;align=center;outlineConnect=0;dashed=0;outlineConnect=0;shape=mxgraph.aws3d.dataServer;strokeColor=#5E5E5E;aspect=fixed;" vertex="1" parent="1">
          <mxGeometry x="1062.94" y="1080.0000000000002" width="72.94" height="62.85" as="geometry" />
        </mxCell>
        <mxCell id="yLzieccpZnZnA55vvNeB-18" value="&lt;font style=&quot;font-size: 18px;&quot;&gt;&lt;font style=&quot;font-size: 18px;&quot;&gt;怡园-A区-1F&lt;/font&gt;&lt;/font&gt;&lt;div style=&quot;font-size: 18px;&quot;&gt;&lt;font style=&quot;font-size: 18px;&quot;&gt;&lt;font style=&quot;font-size: 18px;&quot;&gt;汇聚交换机&lt;/font&gt;&lt;/font&gt;&lt;/div&gt;" style="text;strokeColor=none;align=center;fillColor=none;html=1;verticalAlign=middle;whiteSpace=wrap;rounded=0;fontSize=10;" vertex="1" parent="1">
          <mxGeometry x="1044.41" y="1019.9999999999999" width="110" height="30" as="geometry" />
        </mxCell>
        <mxCell id="yLzieccpZnZnA55vvNeB-19" value="&lt;font style=&quot;font-size: 18px;&quot;&gt;&lt;font style=&quot;font-size: 18px;&quot;&gt;怡园-C区-1F&lt;/font&gt;&lt;/font&gt;&lt;div style=&quot;font-size: 18px;&quot;&gt;&lt;font style=&quot;font-size: 18px;&quot;&gt;&lt;font style=&quot;font-size: 18px;&quot;&gt;汇聚交换机&lt;/font&gt;&lt;/font&gt;&lt;/div&gt;" style="text;strokeColor=none;align=center;fillColor=none;html=1;verticalAlign=middle;whiteSpace=wrap;rounded=0;fontSize=18;" vertex="1" parent="1">
          <mxGeometry x="1044.41" y="1150.99" width="120" height="30" as="geometry" />
        </mxCell>
        <mxCell id="yLzieccpZnZnA55vvNeB-20" value="" style="verticalLabelPosition=bottom;html=1;verticalAlign=top;strokeWidth=1;align=center;outlineConnect=0;dashed=0;outlineConnect=0;shape=mxgraph.aws3d.dataServer;strokeColor=#5E5E5E;aspect=fixed;" vertex="1" parent="1">
          <mxGeometry x="810" y="1041" width="72.94" height="62.85" as="geometry" />
        </mxCell>
        <mxCell id="yLzieccpZnZnA55vvNeB-21" value="&lt;font style=&quot;font-size: 18px;&quot;&gt;&lt;font style=&quot;font-size: 18px;&quot;&gt;怡园-C区-3F&lt;/font&gt;&lt;/font&gt;&lt;div&gt;&lt;div style=&quot;font-size: 18px;&quot;&gt;&lt;font style=&quot;font-size: 18px;&quot;&gt;&lt;font style=&quot;font-size: 18px;&quot;&gt;汇聚交换机&lt;/font&gt;&lt;/font&gt;&lt;/div&gt;&lt;/div&gt;" style="text;strokeColor=none;align=center;fillColor=none;html=1;verticalAlign=middle;whiteSpace=wrap;rounded=0;fontSize=10;" vertex="1" parent="1">
          <mxGeometry x="792.94" y="1107.42" width="110" height="33.21" as="geometry" />
        </mxCell>
        <mxCell id="yLzieccpZnZnA55vvNeB-23" value="" style="verticalLabelPosition=bottom;html=1;verticalAlign=top;strokeWidth=1;align=center;outlineConnect=0;dashed=0;outlineConnect=0;shape=mxgraph.aws3d.dataServer;strokeColor=#5E5E5E;aspect=fixed;" vertex="1" parent="1">
          <mxGeometry x="1048.53" y="1234.5700000000004" width="72.94" height="62.85" as="geometry" />
        </mxCell>
        <mxCell id="yLzieccpZnZnA55vvNeB-24" value="&lt;font style=&quot;font-size: 18px;&quot;&gt;&lt;font style=&quot;font-size: 18px;&quot;&gt;憬园-A区-1F&lt;/font&gt;&lt;/font&gt;&lt;div style=&quot;font-size: 18px;&quot;&gt;&lt;font style=&quot;font-size: 18px;&quot;&gt;&lt;font style=&quot;font-size: 18px;&quot;&gt;汇聚交换机&lt;/font&gt;&lt;/font&gt;&lt;/div&gt;" style="text;strokeColor=none;align=center;fillColor=none;html=1;verticalAlign=middle;whiteSpace=wrap;rounded=0;fontSize=10;" vertex="1" parent="1">
          <mxGeometry x="1030" y="1306.4200000000003" width="120" height="30" as="geometry" />
        </mxCell>
        <mxCell id="yLzieccpZnZnA55vvNeB-25" value="" style="verticalLabelPosition=bottom;html=1;verticalAlign=top;strokeWidth=1;align=center;outlineConnect=0;dashed=0;outlineConnect=0;shape=mxgraph.aws3d.dataServer;strokeColor=#5E5E5E;aspect=fixed;" vertex="1" parent="1">
          <mxGeometry x="812.9400000000002" y="1306.4200000000003" width="72.94" height="62.85" as="geometry" />
        </mxCell>
        <mxCell id="yLzieccpZnZnA55vvNeB-26" value="&lt;font style=&quot;font-size: 18px;&quot;&gt;&lt;font style=&quot;font-size: 18px;&quot;&gt;憬园-C区-1F&lt;/font&gt;&lt;/font&gt;&lt;div&gt;&lt;font style=&quot;font-size: 18px;&quot;&gt;&lt;font style=&quot;font-size: 18px;&quot;&gt;汇聚交换机&lt;/font&gt;&lt;/font&gt;&lt;/div&gt;" style="text;strokeColor=none;align=center;fillColor=none;html=1;verticalAlign=middle;whiteSpace=wrap;rounded=0;fontSize=18;" vertex="1" parent="1">
          <mxGeometry x="800" y="1381.3300000000002" width="120" height="30" as="geometry" />
        </mxCell>
        <mxCell id="yLzieccpZnZnA55vvNeB-27" value="" style="verticalLabelPosition=bottom;html=1;verticalAlign=top;strokeWidth=1;align=center;outlineConnect=0;dashed=0;outlineConnect=0;shape=mxgraph.aws3d.dataServer;strokeColor=#5E5E5E;aspect=fixed;" vertex="1" parent="1">
          <mxGeometry x="816.47" y="1507.4000000000003" width="72.94" height="62.85" as="geometry" />
        </mxCell>
        <mxCell id="yLzieccpZnZnA55vvNeB-28" value="&lt;font style=&quot;font-size: 18px;&quot;&gt;&lt;font style=&quot;font-size: 18px;&quot;&gt;恬园-C区-1F&lt;/font&gt;&lt;/font&gt;&lt;div&gt;&lt;font style=&quot;font-size: 18px;&quot;&gt;&lt;font style=&quot;font-size: 18px;&quot;&gt;汇聚交换机&lt;/font&gt;&lt;/font&gt;&lt;/div&gt;" style="text;strokeColor=none;align=center;fillColor=none;html=1;verticalAlign=middle;whiteSpace=wrap;rounded=0;fontSize=18;" vertex="1" parent="1">
          <mxGeometry x="792.9399999999999" y="1581.0700000000002" width="120" height="30" as="geometry" />
        </mxCell>
        <mxCell id="yLzieccpZnZnA55vvNeB-29" value="" style="verticalLabelPosition=bottom;html=1;verticalAlign=top;strokeWidth=1;align=center;outlineConnect=0;dashed=0;outlineConnect=0;shape=mxgraph.aws3d.dataServer;strokeColor=#5E5E5E;aspect=fixed;" vertex="1" parent="1">
          <mxGeometry x="822.9400000000002" y="1680.7200000000003" width="72.94" height="62.85" as="geometry" />
        </mxCell>
        <mxCell id="yLzieccpZnZnA55vvNeB-30" value="&lt;font style=&quot;font-size: 18px;&quot;&gt;&lt;font style=&quot;font-size: 18px;&quot;&gt;恒园-1F&lt;/font&gt;&lt;/font&gt;&lt;div style=&quot;font-size: 18px;&quot;&gt;&lt;font style=&quot;font-size: 18px;&quot;&gt;&lt;font style=&quot;font-size: 18px;&quot;&gt;汇聚交换机&lt;/font&gt;&lt;/font&gt;&lt;/div&gt;" style="text;strokeColor=none;align=center;fillColor=none;html=1;verticalAlign=middle;whiteSpace=wrap;rounded=0;fontSize=18;" vertex="1" parent="1">
          <mxGeometry x="799.4100000000001" y="1750.1" width="120" height="30" as="geometry" />
        </mxCell>
      </root>
    </mxGraphModel>
  </diagram>
</mxfile>
